<?xml version="1.0" encoding="UTF-8" standalone="no"?>
<!DOCTYPE svg PUBLIC "-//W3C//DTD SVG 1.1//EN" "http://www.w3.org/Graphics/SVG/1.1/DTD/svg11.dtd">
<svg width="100%" height="100%" viewBox="0 0 18 18" version="1.1" xmlns="http://www.w3.org/2000/svg" xmlns:xlink="http://www.w3.org/1999/xlink" xml:space="preserve" xmlns:serif="http://www.serif.com/" style="fill-rule:evenodd;clip-rule:evenodd;stroke-linejoin:round;stroke-miterlimit:2;">
    <g transform="matrix(1,0,0,1,-1722,-23)">
        <g transform="matrix(1,0,0,0.608387,1591.43,7)">
            <g transform="matrix(0.402509,0,0,0.402509,80.1787,21.3244)">
                <g transform="matrix(1,0,0,1.64369,0,0)">
                    <path d="M148,8.773C136.008,8.773 126.273,18.508 126.273,30.5C126.273,42.492 136.008,52.227 148,52.227C159.992,52.227 169.727,42.492 169.727,30.5C169.727,18.508 159.992,8.773 148,8.773ZM148,11C158.762,11 167.5,19.738 167.5,30.5C167.5,41.262 158.762,50 148,50C137.238,50 128.5,41.262 128.5,30.5C128.5,19.738 137.238,11 148,11Z" style="fill:rgb(52,52,52);"/>
                </g>
                <g transform="matrix(27.6261,0,0,45.4087,144.142,67.0943)">
                    <path d="M0.197,-0L0.082,-0L0.082,-0.54L0.197,-0.54L0.197,-0ZM0.075,-0.683C0.075,-0.704 0.081,-0.719 0.092,-0.73C0.103,-0.742 0.119,-0.747 0.14,-0.747C0.16,-0.747 0.176,-0.742 0.187,-0.73C0.198,-0.719 0.204,-0.704 0.204,-0.683C0.204,-0.664 0.198,-0.648 0.187,-0.637C0.176,-0.626 0.16,-0.62 0.14,-0.62C0.119,-0.62 0.103,-0.626 0.092,-0.637C0.081,-0.648 0.075,-0.664 0.075,-0.683Z" style="fill:rgb(52,52,52);fill-rule:nonzero;"/>
                </g>
            </g>
        </g>
    </g>
</svg>
